<svg xmlns="http://www.w3.org/2000/svg" viewBox="0 0 960 480">
<defs><pattern id="grid" width="40" height="40" patternUnits="userSpaceOnUse"><path d="M40 0 L0 0 0 40" fill="none" stroke="#1e293b" stroke-width="0.5"/></pattern><marker id="ah-cyan" viewBox="0 0 10 10" markerWidth="8" markerHeight="8" refX="9" refY="5" orient="auto" markerUnits="strokeWidth"><path d="M0,0 L9,5 L0,10" fill="none" stroke="#22d3ee" stroke-width="1.4" stroke-linecap="round" stroke-linejoin="round"/></marker><marker id="ah-emerald" viewBox="0 0 10 10" markerWidth="8" markerHeight="8" refX="9" refY="5" orient="auto" markerUnits="strokeWidth"><path d="M0,0 L9,5 L0,10" fill="none" stroke="#34d399" stroke-width="1.4" stroke-linecap="round" stroke-linejoin="round"/></marker><marker id="ah-violet" viewBox="0 0 10 10" markerWidth="8" markerHeight="8" refX="9" refY="5" orient="auto" markerUnits="strokeWidth"><path d="M0,0 L9,5 L0,10" fill="none" stroke="#a78bfa" stroke-width="1.4" stroke-linecap="round" stroke-linejoin="round"/></marker><marker id="ah-rose" viewBox="0 0 10 10" markerWidth="8" markerHeight="8" refX="9" refY="5" orient="auto" markerUnits="strokeWidth"><path d="M0,0 L9,5 L0,10" fill="none" stroke="#fb7185" stroke-width="1.4" stroke-linecap="round" stroke-linejoin="round"/></marker><marker id="ah-amber" viewBox="0 0 10 10" markerWidth="8" markerHeight="8" refX="9" refY="5" orient="auto" markerUnits="strokeWidth"><path d="M0,0 L9,5 L0,10" fill="none" stroke="#fbbf24" stroke-width="1.4" stroke-linecap="round" stroke-linejoin="round"/></marker><marker id="ah-slate" viewBox="0 0 10 10" markerWidth="8" markerHeight="8" refX="9" refY="5" orient="auto" markerUnits="strokeWidth"><path d="M0,0 L9,5 L0,10" fill="none" stroke="#94a3b8" stroke-width="1.4" stroke-linecap="round" stroke-linejoin="round"/></marker><marker id="end-tri-open" viewBox="0 0 10 10" markerWidth="9" markerHeight="9" refX="9" refY="5" orient="auto" markerUnits="strokeWidth"><path d="M0,0 L9,5 L0,10 Z" fill="#020617" stroke="#94a3b8" stroke-width="1.2"/></marker><marker id="end-diamond-filled" viewBox="0 0 10 10" markerWidth="10" markerHeight="8" refX="9" refY="5" orient="auto" markerUnits="strokeWidth"><path d="M0,5 L5,0 L10,5 L5,10 Z" fill="#94a3b8" stroke="#94a3b8" stroke-width="1"/></marker><marker id="end-diamond-open" viewBox="0 0 10 10" markerWidth="10" markerHeight="8" refX="9" refY="5" orient="auto" markerUnits="strokeWidth"><path d="M0,5 L5,0 L10,5 L5,10 Z" fill="#020617" stroke="#94a3b8" stroke-width="1"/></marker><marker id="end-dot" viewBox="0 0 10 10" markerWidth="6" markerHeight="6" refX="5" refY="5" orient="auto" markerUnits="strokeWidth"><circle cx="5" cy="5" r="3" fill="#94a3b8"/></marker></defs>
<style>text{paint-order:stroke fill;stroke:#020617;stroke-width:4;stroke-linejoin:round;stroke-linecap:round;fill:#e2e8f0;font-size:12px;font-family:'JetBrains Mono',ui-monospace,monospace;}text.title{stroke-width:6;font-size:16px;font-weight:700;fill:#f1f5f9;}text.sub{stroke-width:3;font-size:10px;fill:#94a3b8;}text.lbl{font-size:11px;fill:#cbd5e1;}text.cluster{stroke-width:5;font-size:11px;font-weight:600;fill:#cbd5e1;}rect.component{transition:filter 220ms ease;cursor:pointer;}rect.component:hover{filter:drop-shadow(0 0 8px var(--glow,rgba(255,255,255,0.2)));}rect.cyan{--glow:rgba(34,211,238,0.5);}rect.emerald{--glow:rgba(52,211,153,0.5);}rect.violet{--glow:rgba(167,139,250,0.5);}rect.rose{--glow:rgba(251,113,133,0.5);}rect.amber{--glow:rgba(251,191,36,0.5);}rect.slate{--glow:rgba(148,163,184,0.4);}</style>
<rect width="960" height="480" fill="#020617"/>
<rect width="960" height="480" fill="url(#grid)"/>
<text class="title" x="32" y="44">EVENT-DRIVEN CQRS WITH AUDIT STREAM</text>
<text class="sub" x="32" y="64">solid = command · amber dashed = pub/sub · violet dotted = audit</text>
<rect class="component emerald" x="60" y="200" width="160" height="64" rx="2" fill="rgba(6,78,59,0.4)" stroke="#34d399" stroke-width="1"/>
<text x="140" y="236" text-anchor="middle">COMMAND SVC</text>
<text class="sub" x="140" y="252" text-anchor="middle">write side</text>
<rect class="component amber" x="300" y="200" width="180" height="64" rx="2" fill="rgba(120,53,15,0.3)" stroke="#fbbf24" stroke-width="1"/>
<text x="390" y="236" text-anchor="middle">KAFKA</text>
<text class="sub" x="390" y="252" text-anchor="middle">orders.events</text>
<rect class="component emerald" x="560" y="100" width="160" height="64" rx="2" fill="rgba(6,78,59,0.4)" stroke="#34d399" stroke-width="1"/>
<text x="640" y="136" text-anchor="middle">PROJECTOR</text>
<text class="sub" x="640" y="152" text-anchor="middle">build read model</text>
<rect class="component violet" x="760" y="100" width="140" height="64" rx="2" fill="rgba(76,29,149,0.4)" stroke="#a78bfa" stroke-width="1"/>
<text x="830" y="136" text-anchor="middle">READ DB</text>
<text class="sub" x="830" y="152" text-anchor="middle">denorm</text>
<rect class="component emerald" x="560" y="300" width="160" height="64" rx="2" fill="rgba(6,78,59,0.4)" stroke="#34d399" stroke-width="1"/>
<text x="640" y="336" text-anchor="middle">NOTIFIER</text>
<text class="sub" x="640" y="352" text-anchor="middle">email / push</text>
<rect class="component violet" x="300" y="380" width="180" height="64" rx="2" fill="rgba(76,29,149,0.4)" stroke="#a78bfa" stroke-width="1"/>
<text x="390" y="416" text-anchor="middle">AUDIT SINK</text>
<text class="sub" x="390" y="432" text-anchor="middle">S3 cold storage</text>
<path d="M220,232 H300" fill="none" stroke="#34d399" stroke-width="1.0" stroke-linecap="round" stroke-linejoin="round" marker-end="url(#ah-emerald)"/>
<text class="lbl" x="260" y="226" text-anchor="middle">produce</text>
<line x1="236.9" y1="230" x2="283.1" y2="230" stroke="#94a3b8" stroke-width="0.75"/>
<path d="M480,221 V144 Q480,132 492,132 H560" fill="none" stroke="#fbbf24" stroke-width="1.0" stroke-dasharray="5,3" stroke-linecap="round" stroke-linejoin="round" marker-end="url(#ah-amber)"/>
<text class="lbl" x="520" y="170" text-anchor="middle">consume</text>
<line x1="496.9" y1="174" x2="543.1" y2="174" stroke="#94a3b8" stroke-width="0.75"/>
<path d="M720,132 H760" fill="none" stroke="#a78bfa" stroke-width="1.0" stroke-dasharray="4,3" stroke-linecap="round" stroke-linejoin="round" marker-end="url(#ah-violet)"/>
<path d="M480,242 V320 Q480,332 492,332 H560" fill="none" stroke="#fbbf24" stroke-width="1.0" stroke-dasharray="5,3" stroke-linecap="round" stroke-linejoin="round" marker-end="url(#ah-amber)"/>
<text class="lbl" x="520" y="281" text-anchor="middle">consume</text>
<line x1="496.9" y1="285" x2="543.1" y2="285" stroke="#94a3b8" stroke-width="0.75"/>
<path d="M390,264 V380" fill="none" stroke="#a78bfa" stroke-width="0.75" stroke-dasharray="1,3" stroke-linecap="round" stroke-linejoin="round" marker-end="url(#ah-violet)"/>
<text class="lbl" x="390" y="316" text-anchor="middle">audit tap</text>
<line x1="360.3" y1="320" x2="419.7" y2="320" stroke="#94a3b8" stroke-width="0.75"/>
</svg>
