<svg xmlns="http://www.w3.org/2000/svg" viewBox="0 0 900 520" font-family="JetBrains Mono, ui-monospace, monospace">
  <defs>
    <marker id="ah" markerWidth="10" markerHeight="10" refX="9" refY="3" orient="auto" markerUnits="strokeWidth">
      <path d="M0,0 L0,6 L9,3 z" fill="#94a3b8"/>
    </marker>
    <pattern id="grid" width="40" height="40" patternUnits="userSpaceOnUse">
      <path d="M 40 0 L 0 0 0 40" fill="none" stroke="#1e293b" stroke-width="0.5"/>
    </pattern>
  </defs>
  <style>
    text { paint-order: stroke fill; stroke: rgba(2,6,23,0.5); stroke-width: 3; stroke-linejoin: round; stroke-linecap: round; fill: #e2e8f0; font-size: 12px; }
    .title { font-size: 16px; font-weight: 700; fill: #f1f5f9; stroke-width: 4; }
    .lbl { font-size: 11px; fill: #cbd5e1; stroke-width: 2.5; }
    .lbl-audit { font-size: 11px; fill: #c4b5fd; stroke-width: 2.5; }
    .sub { font-size: 10px; fill: #94a3b8; stroke-width: 2; }
  </style>
  <rect width="900" height="520" fill="#020617"/>
  <rect width="900" height="520" fill="url(#grid)"/>

  <text x="40" y="40" class="title">Event-driven CQRS with audit stream</text>
  <text x="40" y="60" class="sub">solid = command path; amber dashed = pub/sub; violet dotted thin = audit log fan-out</text>

  <!-- Command Service -->
  <rect x="40" y="200" width="160" height="70" rx="6" fill="rgba(6,78,59,0.4)" stroke="#34d399" stroke-width="1.5"/>
  <text x="120" y="230" text-anchor="middle">COMMAND SVC</text>
  <text x="120" y="250" class="sub" text-anchor="middle">write side</text>

  <!-- Broker -->
  <rect x="290" y="200" width="180" height="70" rx="6" fill="rgba(120,53,15,0.3)" stroke="#fbbf24" stroke-width="1.5"/>
  <text x="380" y="230" text-anchor="middle">KAFKA</text>
  <text x="380" y="250" class="sub" text-anchor="middle">orders.events</text>

  <!-- Projection consumer -->
  <rect x="560" y="120" width="160" height="70" rx="6" fill="rgba(6,78,59,0.4)" stroke="#34d399" stroke-width="1.5"/>
  <text x="640" y="150" text-anchor="middle">PROJECTOR</text>
  <text x="640" y="170" class="sub" text-anchor="middle">build read model</text>

  <!-- Notifier consumer -->
  <rect x="560" y="280" width="160" height="70" rx="6" fill="rgba(6,78,59,0.4)" stroke="#34d399" stroke-width="1.5"/>
  <text x="640" y="310" text-anchor="middle">NOTIFIER</text>
  <text x="640" y="330" class="sub" text-anchor="middle">email / push</text>

  <!-- Read DB -->
  <rect x="760" y="120" width="120" height="70" rx="6" fill="rgba(76,29,149,0.4)" stroke="#a78bfa" stroke-width="1.5"/>
  <text x="820" y="150" text-anchor="middle">READ DB</text>
  <text x="820" y="170" class="sub" text-anchor="middle">denorm</text>

  <!-- Audit sink -->
  <rect x="290" y="400" width="180" height="70" rx="6" fill="rgba(76,29,149,0.4)" stroke="#a78bfa" stroke-width="1.5"/>
  <text x="380" y="430" text-anchor="middle">AUDIT SINK</text>
  <text x="380" y="450" class="sub" text-anchor="middle">S3 cold storage</text>

  <!-- Edges -->
  <!-- Command -> Kafka -->
  <line x1="200" y1="235" x2="288" y2="235" stroke="#34d399" stroke-width="1.5" marker-end="url(#ah)"/>
  <text x="244" y="225" class="lbl" text-anchor="middle">produce</text>

  <!-- Kafka -> projector -->
  <path d="M 470 220 Q 520 155 558 155" fill="none" stroke="#fbbf24" stroke-width="1.5" stroke-dasharray="5,3" marker-end="url(#ah)"/>
  <text x="500" y="178" class="lbl" text-anchor="middle">consume</text>

  <!-- Kafka -> notifier -->
  <path d="M 470 250 Q 520 315 558 315" fill="none" stroke="#fbbf24" stroke-width="1.5" stroke-dasharray="5,3" marker-end="url(#ah)"/>
  <text x="500" y="298" class="lbl" text-anchor="middle">consume</text>

  <!-- Projector -> read DB -->
  <line x1="720" y1="155" x2="758" y2="155" stroke="#a78bfa" stroke-width="1" stroke-dasharray="4,3" marker-end="url(#ah)"/>

  <!-- Kafka -> audit -->
  <path d="M 380 270 L 380 398" fill="none" stroke="#a78bfa" stroke-width="0.8" stroke-dasharray="1,3" marker-end="url(#ah)"/>
  <text x="395" y="340" class="lbl-audit">audit tap</text>
</svg>
