<svg xmlns="http://www.w3.org/2000/svg" viewBox="0 0 1400 1000">
<defs><pattern id="grid" width="40" height="40" patternUnits="userSpaceOnUse"><path d="M40 0 L0 0 0 40" fill="none" stroke="#1e293b" stroke-width="0.5"/></pattern></defs>
<style>
text{paint-order:stroke fill;stroke:#020617;stroke-width:4;stroke-linejoin:round;stroke-linecap:round;fill:#e2e8f0;font-size:11px;font-family:'JetBrains Mono',ui-monospace,monospace;}
text.title{stroke-width:7;font-size:16px;font-weight:700;fill:#f1f5f9;}
text.sub{stroke-width:3;font-size:10px;fill:#94a3b8;}
text.branch{stroke-width:5;font-size:12px;font-weight:600;}
rect.component{transition:filter 220ms ease;cursor:pointer;}
rect.component:hover{filter:drop-shadow(0 0 8px var(--glow,rgba(255,255,255,0.2)));}
rect.cyan{--glow:rgba(34,211,238,0.5);}
rect.emerald{--glow:rgba(52,211,153,0.5);}
rect.violet{--glow:rgba(167,139,250,0.5);}
rect.rose{--glow:rgba(251,113,133,0.5);}
rect.amber{--glow:rgba(251,191,36,0.5);}
rect.slate{--glow:rgba(148,163,184,0.4);}
</style>
<rect width="1400" height="1000" fill="#020617"/>
<rect width="1400" height="1000" fill="url(#grid)"/>
<text class="title" x="32" y="44">OUTBOUND PROXY — CORE CONCERNS</text>
<text class="sub" x="32" y="64">radial mindmap · 5 branches × 3 leaves · blueprint v2</text>
<path d="M700.0,462.0 Q674.8,365.0 700.0,268.0" fill="none" stroke="#fb7185" stroke-width="1.4" stroke-linecap="round"/>
<path d="M817.0,462.0 Q840.0,447.3 867.3,445.6" fill="none" stroke="#fbbf24" stroke-width="1.4" stroke-linecap="round"/>
<path d="M727.6,538.0 Q761.3,623.8 832.5,682.3" fill="none" stroke="#a78bfa" stroke-width="1.4" stroke-linecap="round"/>
<path d="M672.4,538.0 Q638.7,623.8 567.5,682.3" fill="none" stroke="#34d399" stroke-width="1.4" stroke-linecap="round"/>
<path d="M583.0,462.0 Q555.8,460.4 532.7,445.6" fill="none" stroke="#22d3ee" stroke-width="1.4" stroke-linecap="round"/>
<path d="M671.8,212.0 Q633.6,147.4 568.8,109.6" fill="none" stroke="#fb7185" stroke-width="1.0" stroke-linecap="round" opacity="0.85"/>
<path d="M700.0,212.0 Q683.1,147.0 700.0,82.0" fill="none" stroke="#fb7185" stroke-width="1.0" stroke-linecap="round" opacity="0.85"/>
<path d="M728.2,212.0 Q766.4,147.4 831.2,109.6" fill="none" stroke="#fb7185" stroke-width="1.0" stroke-linecap="round" opacity="0.85"/>
<path d="M961.4,391.7 Q1016.2,329.6 1033.7,248.7" fill="none" stroke="#fbbf24" stroke-width="1.0" stroke-linecap="round" opacity="0.85"/>
<path d="M1027.3,393.7 Q1038.0,386.8 1050.8,386.0" fill="none" stroke="#fbbf24" stroke-width="1.0" stroke-linecap="round" opacity="0.85"/>
<path d="M1001.8,447.7 Q1055.6,459.7 1096.8,496.4" fill="none" stroke="#fbbf24" stroke-width="1.0" stroke-linecap="round" opacity="0.85"/>
<path d="M932.8,722.8 Q963.4,736.0 996.5,732.6" fill="none" stroke="#a78bfa" stroke-width="1.0" stroke-linecap="round" opacity="0.85"/>
<path d="M873.2,738.3 Q895.5,795.2 942.6,834.0" fill="none" stroke="#a78bfa" stroke-width="1.0" stroke-linecap="round" opacity="0.85"/>
<path d="M848.3,738.3 Q856.3,823.5 821.9,901.8" fill="none" stroke="#a78bfa" stroke-width="1.0" stroke-linecap="round" opacity="0.85"/>
<path d="M551.7,738.3 Q543.7,823.5 578.1,901.8" fill="none" stroke="#34d399" stroke-width="1.0" stroke-linecap="round" opacity="0.85"/>
<path d="M526.8,738.3 Q504.5,795.2 457.4,834.0" fill="none" stroke="#34d399" stroke-width="1.0" stroke-linecap="round" opacity="0.85"/>
<path d="M467.2,722.8 Q436.6,736.0 403.5,732.6" fill="none" stroke="#34d399" stroke-width="1.0" stroke-linecap="round" opacity="0.85"/>
<path d="M398.2,447.7 Q344.4,459.7 303.2,496.4" fill="none" stroke="#22d3ee" stroke-width="1.0" stroke-linecap="round" opacity="0.85"/>
<path d="M372.7,393.7 Q360.0,392.9 349.2,386.0" fill="none" stroke="#22d3ee" stroke-width="1.0" stroke-linecap="round" opacity="0.85"/>
<path d="M438.6,391.7 Q383.8,329.6 366.3,248.7" fill="none" stroke="#22d3ee" stroke-width="1.0" stroke-linecap="round" opacity="0.85"/>
<rect class="component slate" x="570" y="462" width="260" height="76" rx="4" fill="rgba(30,41,59,0.7)" stroke="#cbd5e1" stroke-width="1.5"/>
<text class="title" x="700" y="496" text-anchor="middle">OUTBOUND PROXY</text>
<text class="sub" x="700" y="518" text-anchor="middle">third-party API gateway</text>
<rect class="component rose" x="620.0" y="212.0" width="160" height="56" rx="3" fill="rgba(136,19,55,0.4)" stroke="#fb7185" stroke-width="1.2"/>
<text class="branch" x="700.0" y="245.0" text-anchor="middle" fill="#fb7185">CREDENTIALS</text>
<rect class="component amber" x="867.3" y="391.7" width="160" height="56" rx="3" fill="rgba(120,53,15,0.3)" stroke="#fbbf24" stroke-width="1.2"/>
<text class="branch" x="947.3" y="424.7" text-anchor="middle" fill="#fbbf24">EGRESS CONTROL</text>
<rect class="component violet" x="772.8" y="682.3" width="160" height="56" rx="3" fill="rgba(76,29,149,0.4)" stroke="#a78bfa" stroke-width="1.2"/>
<text class="branch" x="852.8" y="715.3" text-anchor="middle" fill="#a78bfa">OBSERVABILITY</text>
<rect class="component emerald" x="467.2" y="682.3" width="160" height="56" rx="3" fill="rgba(6,78,59,0.4)" stroke="#34d399" stroke-width="1.2"/>
<text class="branch" x="547.2" y="715.3" text-anchor="middle" fill="#34d399">RELIABILITY</text>
<rect class="component cyan" x="372.7" y="391.7" width="160" height="56" rx="3" fill="rgba(8,51,68,0.4)" stroke="#22d3ee" stroke-width="1.2"/>
<text class="branch" x="452.7" y="424.7" text-anchor="middle" fill="#22d3ee">PROVIDER QUIRKS</text>
<rect class="component rose" x="476.6" y="65.6" width="140" height="44" rx="3" fill="rgba(136,19,55,0.4)" stroke="#fb7185" stroke-width="1"/>
<text x="546.6" y="91.6" text-anchor="middle">OAuth refresh</text>
<rect class="component rose" x="630.0" y="38.0" width="140" height="44" rx="3" fill="rgba(136,19,55,0.4)" stroke="#fb7185" stroke-width="1"/>
<text x="700.0" y="64.0" text-anchor="middle">KMS unwrap</text>
<rect class="component rose" x="783.4" y="65.6" width="140" height="44" rx="3" fill="rgba(136,19,55,0.4)" stroke="#fb7185" stroke-width="1"/>
<text x="853.4" y="91.6" text-anchor="middle">Secret rotation</text>
<rect class="component amber" x="974.8" y="204.7" width="140" height="44" rx="3" fill="rgba(120,53,15,0.3)" stroke="#fbbf24" stroke-width="1"/>
<text x="1044.8" y="230.7" text-anchor="middle">Stable IPs</text>
<rect class="component amber" x="1048.5" y="342.0" width="140" height="44" rx="3" fill="rgba(120,53,15,0.3)" stroke="#fbbf24" stroke-width="1"/>
<text x="1118.5" y="368.0" text-anchor="middle">Allowlist</text>
<rect class="component amber" x="1069.6" y="496.4" width="140" height="44" rx="3" fill="rgba(120,53,15,0.3)" stroke="#fbbf24" stroke-width="1"/>
<text x="1139.6" y="522.4" text-anchor="middle">NAT gateway</text>
<rect class="component violet" x="996.5" y="721.5" width="140" height="44" rx="3" fill="rgba(76,29,149,0.4)" stroke="#a78bfa" stroke-width="1"/>
<text x="1066.5" y="747.5" text-anchor="middle">Audit logs</text>
<rect class="component violet" x="888.6" y="834.0" width="140" height="44" rx="3" fill="rgba(76,29,149,0.4)" stroke="#a78bfa" stroke-width="1"/>
<text x="958.6" y="860.0" text-anchor="middle">Request traces</text>
<rect class="component violet" x="748.3" y="901.8" width="140" height="44" rx="3" fill="rgba(76,29,149,0.4)" stroke="#a78bfa" stroke-width="1"/>
<text x="818.3" y="927.8" text-anchor="middle">SIEM feed</text>
<rect class="component emerald" x="511.7" y="901.8" width="140" height="44" rx="3" fill="rgba(6,78,59,0.4)" stroke="#34d399" stroke-width="1"/>
<text x="581.7" y="927.8" text-anchor="middle">Retries</text>
<rect class="component emerald" x="371.4" y="834.0" width="140" height="44" rx="3" fill="rgba(6,78,59,0.4)" stroke="#34d399" stroke-width="1"/>
<text x="441.4" y="860.0" text-anchor="middle">Circuit breakers</text>
<rect class="component emerald" x="263.5" y="721.5" width="140" height="44" rx="3" fill="rgba(6,78,59,0.4)" stroke="#34d399" stroke-width="1"/>
<text x="333.5" y="747.5" text-anchor="middle">Rate limiting</text>
<rect class="component cyan" x="190.4" y="496.4" width="140" height="44" rx="3" fill="rgba(8,51,68,0.4)" stroke="#22d3ee" stroke-width="1"/>
<text x="260.4" y="522.4" text-anchor="middle">Auth dance</text>
<rect class="component cyan" x="211.5" y="342.0" width="140" height="44" rx="3" fill="rgba(8,51,68,0.4)" stroke="#22d3ee" stroke-width="1"/>
<text x="281.5" y="368.0" text-anchor="middle">Pagination</text>
<rect class="component cyan" x="285.2" y="204.7" width="140" height="44" rx="3" fill="rgba(8,51,68,0.4)" stroke="#22d3ee" stroke-width="1"/>
<text x="355.2" y="230.7" text-anchor="middle">API drift</text>
</svg>
