<svg xmlns="http://www.w3.org/2000/svg" viewBox="0 0 1500 1320">
<defs><pattern id="grid" width="40" height="40" patternUnits="userSpaceOnUse"><path d="M40 0 L0 0 0 40" fill="none" stroke="#1e293b" stroke-width="0.5"/></pattern></defs>
<style>
text{paint-order:stroke fill;stroke:#020617;stroke-width:4;stroke-linejoin:round;stroke-linecap:round;fill:#e2e8f0;font-size:11px;font-family:'JetBrains Mono',ui-monospace,monospace;}
text.title{stroke-width:7;font-size:16px;font-weight:700;fill:#f1f5f9;}
text.sub{stroke-width:3;font-size:10px;fill:#94a3b8;}
text.branch{stroke-width:5;font-size:12px;font-weight:600;}
rect.component{transition:filter 220ms ease;cursor:pointer;}
rect.component:hover{filter:drop-shadow(0 0 8px var(--glow,rgba(255,255,255,0.2)));}
rect.cyan{--glow:rgba(34,211,238,0.5);}
rect.emerald{--glow:rgba(52,211,153,0.5);}
rect.violet{--glow:rgba(167,139,250,0.5);}
rect.rose{--glow:rgba(251,113,133,0.5);}
rect.amber{--glow:rgba(251,191,36,0.5);}
rect.orange{--glow:rgba(251,146,60,0.5);}
rect.slate{--glow:rgba(148,163,184,0.4);}
</style>
<rect width="1500" height="1320" fill="#020617"/>
<rect width="1500" height="1320" fill="url(#grid)"/>
<text class="title" x="32" y="44">OSS PROJECT MARKETING — STRATEGY MAP</text>
<text class="sub" x="32" y="64">radial mindmap · 7 branches × 3 leaves · blueprint v2</text>
<path d="M750.0,620.0 Q719.8,504.0 750.0,388.0" fill="none" stroke="#94a3b8" stroke-width="1.4" stroke-linecap="round"/>
<path d="M800.2,620.0 Q890.3,579.9 949.4,501.0" fill="none" stroke="#22d3ee" stroke-width="1.4" stroke-linecap="round"/>
<path d="M890.0,692.0 Q925.7,690.9 957.5,707.4" fill="none" stroke="#34d399" stroke-width="1.4" stroke-linecap="round"/>
<path d="M769.3,700.0 Q844.3,788.5 866.7,902.3" fill="none" stroke="#fb7185" stroke-width="1.4" stroke-linecap="round"/>
<path d="M730.7,700.0 Q655.7,788.5 633.3,902.3" fill="none" stroke="#fbbf24" stroke-width="1.4" stroke-linecap="round"/>
<path d="M610.0,692.0 Q578.3,708.4 542.5,707.4" fill="none" stroke="#fb923c" stroke-width="1.4" stroke-linecap="round"/>
<path d="M699.8,620.0 Q609.7,579.9 550.6,501.0" fill="none" stroke="#a78bfa" stroke-width="1.4" stroke-linecap="round"/>
<path d="M735.4,332.0 Q703.0,190.1 605.5,81.9" fill="none" stroke="#94a3b8" stroke-width="1.0" stroke-linecap="round" opacity="0.85"/>
<path d="M750.0,332.0 Q714.9,197.0 750.0,62.0" fill="none" stroke="#94a3b8" stroke-width="1.0" stroke-linecap="round" opacity="0.85"/>
<path d="M764.6,332.0 Q797.0,190.1 894.5,81.9" fill="none" stroke="#94a3b8" stroke-width="1.0" stroke-linecap="round" opacity="0.85"/>
<path d="M997.0,445.0 Q1088.2,330.4 1112.1,185.9" fill="none" stroke="#22d3ee" stroke-width="1.0" stroke-linecap="round" opacity="0.85"/>
<path d="M1019.7,445.0 Q1094.0,345.8 1207.1,295.4" fill="none" stroke="#22d3ee" stroke-width="1.0" stroke-linecap="round" opacity="0.85"/>
<path d="M1069.5,456.3 Q1153.5,415.9 1246.4,421.6" fill="none" stroke="#22d3ee" stroke-width="1.0" stroke-linecap="round" opacity="0.85"/>
<path d="M1127.5,704.6 Q1219.4,704.5 1299.7,659.7" fill="none" stroke="#34d399" stroke-width="1.0" stroke-linecap="round" opacity="0.85"/>
<path d="M1127.5,746.2 Q1210.6,743.7 1284.5,782.0" fill="none" stroke="#34d399" stroke-width="1.0" stroke-linecap="round" opacity="0.85"/>
<path d="M1075.5,754.8 Q1196.9,813.3 1274.4,923.6" fill="none" stroke="#34d399" stroke-width="1.0" stroke-linecap="round" opacity="0.85"/>
<path d="M917.6,958.3 Q999.7,1061.1 1121.5,1111.0" fill="none" stroke="#fb7185" stroke-width="1.0" stroke-linecap="round" opacity="0.85"/>
<path d="M893.6,958.3 Q982.0,1062.5 1008.4,1196.6" fill="none" stroke="#fb7185" stroke-width="1.0" stroke-linecap="round" opacity="0.85"/>
<path d="M879.3,958.3 Q912.3,1103.4 870.5,1246.3" fill="none" stroke="#fb7185" stroke-width="1.0" stroke-linecap="round" opacity="0.85"/>
<path d="M620.7,958.3 Q587.7,1103.4 629.5,1246.3" fill="none" stroke="#fbbf24" stroke-width="1.0" stroke-linecap="round" opacity="0.85"/>
<path d="M606.4,958.3 Q579.9,1092.4 491.6,1196.6" fill="none" stroke="#fbbf24" stroke-width="1.0" stroke-linecap="round" opacity="0.85"/>
<path d="M582.4,958.3 Q500.3,1061.1 378.5,1111.0" fill="none" stroke="#fbbf24" stroke-width="1.0" stroke-linecap="round" opacity="0.85"/>
<path d="M424.5,754.8 Q303.1,813.3 225.6,923.6" fill="none" stroke="#fb923c" stroke-width="1.0" stroke-linecap="round" opacity="0.85"/>
<path d="M372.5,746.2 Q289.4,743.7 215.5,782.0" fill="none" stroke="#fb923c" stroke-width="1.0" stroke-linecap="round" opacity="0.85"/>
<path d="M372.5,704.6 Q280.6,704.5 200.3,659.7" fill="none" stroke="#fb923c" stroke-width="1.0" stroke-linecap="round" opacity="0.85"/>
<path d="M430.5,456.3 Q346.5,415.9 253.6,421.6" fill="none" stroke="#a78bfa" stroke-width="1.0" stroke-linecap="round" opacity="0.85"/>
<path d="M480.3,445.0 Q367.2,394.6 292.9,295.4" fill="none" stroke="#a78bfa" stroke-width="1.0" stroke-linecap="round" opacity="0.85"/>
<path d="M503.0,445.0 Q411.8,330.4 387.9,185.9" fill="none" stroke="#a78bfa" stroke-width="1.0" stroke-linecap="round" opacity="0.85"/>
<rect class="component slate" x="610" y="620" width="280" height="80" rx="4" fill="rgba(30,41,59,0.7)" stroke="#cbd5e1" stroke-width="1.5"/>
<text class="title" x="750" y="656" text-anchor="middle">OSS MARKETING</text>
<text class="sub" x="750" y="678" text-anchor="middle">end-to-end growth strategy</text>
<rect class="component slate" x="665.0" y="332.0" width="170" height="56" rx="3" fill="rgba(30,41,59,0.5)" stroke="#94a3b8" stroke-width="1.2"/>
<text class="branch" x="750.0" y="365.0" text-anchor="middle" fill="#94a3b8">POSITIONING</text>
<rect class="component cyan" x="899.5" y="445.0" width="170" height="56" rx="3" fill="rgba(8,51,68,0.4)" stroke="#22d3ee" stroke-width="1.2"/>
<text class="branch" x="984.5" y="478.0" text-anchor="middle" fill="#22d3ee">AUDIENCE</text>
<rect class="component emerald" x="957.5" y="698.8" width="170" height="56" rx="3" fill="rgba(6,78,59,0.4)" stroke="#34d399" stroke-width="1.2"/>
<text class="branch" x="1042.5" y="731.8" text-anchor="middle" fill="#34d399">CONTENT</text>
<rect class="component rose" x="795.2" y="902.3" width="170" height="56" rx="3" fill="rgba(136,19,55,0.4)" stroke="#fb7185" stroke-width="1.2"/>
<text class="branch" x="880.2" y="935.3" text-anchor="middle" fill="#fb7185">COMMUNITY</text>
<rect class="component amber" x="534.8" y="902.3" width="170" height="56" rx="3" fill="rgba(120,53,15,0.3)" stroke="#fbbf24" stroke-width="1.2"/>
<text class="branch" x="619.8" y="935.3" text-anchor="middle" fill="#fbbf24">DISTRIBUTION</text>
<rect class="component orange" x="372.5" y="698.8" width="170" height="56" rx="3" fill="rgba(124,45,18,0.35)" stroke="#fb923c" stroke-width="1.2"/>
<text class="branch" x="457.5" y="731.8" text-anchor="middle" fill="#fb923c">NARRATIVE</text>
<rect class="component violet" x="430.5" y="445.0" width="170" height="56" rx="3" fill="rgba(76,29,149,0.4)" stroke="#a78bfa" stroke-width="1.2"/>
<text class="branch" x="515.5" y="478.0" text-anchor="middle" fill="#a78bfa">METRICS</text>
<rect class="component slate" x="524.0" y="37.9" width="140" height="44" rx="3" fill="rgba(30,41,59,0.5)" stroke="#94a3b8" stroke-width="1"/>
<text x="594.0" y="63.9" text-anchor="middle">Replace category</text>
<rect class="component slate" x="680.0" y="18.0" width="140" height="44" rx="3" fill="rgba(30,41,59,0.5)" stroke="#94a3b8" stroke-width="1"/>
<text x="750.0" y="44.0" text-anchor="middle">Anti-positioning</text>
<rect class="component slate" x="836.0" y="37.9" width="140" height="44" rx="3" fill="rgba(30,41,59,0.5)" stroke="#94a3b8" stroke-width="1"/>
<text x="906.0" y="63.9" text-anchor="middle">Public manifesto</text>
<rect class="component cyan" x="1051.9" y="141.9" width="140" height="44" rx="3" fill="rgba(8,51,68,0.4)" stroke="#22d3ee" stroke-width="1"/>
<text x="1121.9" y="167.9" text-anchor="middle">Primary ICP</text>
<rect class="component cyan" x="1164.7" y="251.4" width="140" height="44" rx="3" fill="rgba(8,51,68,0.4)" stroke="#22d3ee" stroke-width="1"/>
<text x="1234.7" y="277.4" text-anchor="middle">Buyer vs user</text>
<rect class="component cyan" x="1246.4" y="385.8" width="140" height="44" rx="3" fill="rgba(8,51,68,0.4)" stroke="#22d3ee" stroke-width="1"/>
<text x="1316.4" y="411.8" text-anchor="middle">Non-targets</text>
<rect class="component emerald" x="1299.7" y="619.5" width="140" height="44" rx="3" fill="rgba(6,78,59,0.4)" stroke="#34d399" stroke-width="1"/>
<text x="1369.7" y="645.5" text-anchor="middle">Deep-dive blog</text>
<rect class="component emerald" x="1284.5" y="776.0" width="140" height="44" rx="3" fill="rgba(6,78,59,0.4)" stroke="#34d399" stroke-width="1"/>
<text x="1354.5" y="802.0" text-anchor="middle">Live demos</text>
<rect class="component emerald" x="1230.3" y="923.6" width="140" height="44" rx="3" fill="rgba(6,78,59,0.4)" stroke="#34d399" stroke-width="1"/>
<text x="1300.3" y="949.6" text-anchor="middle">Comparison pages</text>
<rect class="component rose" x="1080.9" y="1111.0" width="140" height="44" rx="3" fill="rgba(136,19,55,0.4)" stroke="#fb7185" stroke-width="1"/>
<text x="1150.9" y="1137.0" text-anchor="middle">GitHub stars</text>
<rect class="component rose" x="949.0" y="1196.6" width="140" height="44" rx="3" fill="rgba(136,19,55,0.4)" stroke="#fb7185" stroke-width="1"/>
<text x="1019.0" y="1222.6" text-anchor="middle">Discord / Slack</text>
<rect class="component rose" x="791.3" y="1246.3" width="157" height="44" rx="3" fill="rgba(136,19,55,0.4)" stroke="#fb7185" stroke-width="1"/>
<text x="869.8" y="1272.3" text-anchor="middle">Maintainer pipeline</text>
<rect class="component amber" x="560.2" y="1246.3" width="140" height="44" rx="3" fill="rgba(120,53,15,0.3)" stroke="#fbbf24" stroke-width="1"/>
<text x="630.2" y="1272.3" text-anchor="middle">Package mgrs</text>
<rect class="component amber" x="406.0" y="1196.6" width="150" height="44" rx="3" fill="rgba(120,53,15,0.3)" stroke="#fbbf24" stroke-width="1"/>
<text x="481.0" y="1222.6" text-anchor="middle">Cloud marketplaces</text>
<rect class="component amber" x="279.1" y="1111.0" width="140" height="44" rx="3" fill="rgba(120,53,15,0.3)" stroke="#fbbf24" stroke-width="1"/>
<text x="349.1" y="1137.0" text-anchor="middle">Conferences</text>
<rect class="component orange" x="129.7" y="923.6" width="140" height="44" rx="3" fill="rgba(124,45,18,0.35)" stroke="#fb923c" stroke-width="1"/>
<text x="199.7" y="949.6" text-anchor="middle">Founder posts</text>
<rect class="component orange" x="75.5" y="776.0" width="140" height="44" rx="3" fill="rgba(124,45,18,0.35)" stroke="#fb923c" stroke-width="1"/>
<text x="145.5" y="802.0" text-anchor="middle">Hot takes</text>
<rect class="component orange" x="60.3" y="619.5" width="140" height="44" rx="3" fill="rgba(124,45,18,0.35)" stroke="#fb923c" stroke-width="1"/>
<text x="130.3" y="645.5" text-anchor="middle">Failure stories</text>
<rect class="component violet" x="113.6" y="385.8" width="140" height="44" rx="3" fill="rgba(76,29,149,0.4)" stroke="#a78bfa" stroke-width="1"/>
<text x="183.6" y="411.8" text-anchor="middle">Active installs</text>
<rect class="component violet" x="195.3" y="251.4" width="140" height="44" rx="3" fill="rgba(76,29,149,0.4)" stroke="#a78bfa" stroke-width="1"/>
<text x="265.3" y="277.4" text-anchor="middle">DAU / MAU</text>
<rect class="component violet" x="308.1" y="141.9" width="140" height="44" rx="3" fill="rgba(76,29,149,0.4)" stroke="#a78bfa" stroke-width="1"/>
<text x="378.1" y="167.9" text-anchor="middle">PLG → paid</text>
</svg>
